<svg
    xmlns="http://www.w3.org/2000/svg"
    data-name="Capa 1"
    viewBox="0 0 701.65 279.2"
    width="1em"
    height="1em"
    fill="black"
  >
    <title>{"transforCars"}</title>
    <path d="M343.9 47.26v66.63h-7.21V47.26H321.2v-6.68h38.19v6.68ZM373.08 114.1H366V81.64c0-10.82 2.65-17.51 13-21.86a22.53 22.53 0 0 1 7.21-1.8v7.32c-9.76 1.17-13.15 5.09-13.15 15.38ZM448.83 114.1H442v-8.7c-8.07 7.85-14.54 10.19-22.81 10.19-17.3 0-29.81-12.42-29.81-28.86 0-16.66 12.94-29.18 30.44-29.18 8.92 0 19.21 4.46 24 11.57a27.74 27.74 0 0 1 4.56 10.39l.64 9.55Zm-52.2-27c0 12.3 9.44 22.38 22.81 22.38a21.72 21.72 0 0 0 16.23-7.1c13.48-14.43 3.72-38.62-16-38.62-13.67-.05-23.04 10.98-23.04 23.29ZM502 114.1v-31c0-10.69-3.1-19.1-17-19.1-8.92 0-15.71 4.77-17.3 12.94a59.85 59.85 0 0 0-.53 10.29v26.87h-6.79V79.2a21.64 21.64 0 0 1 6.47-15c4.35-4.46 10.72-6.58 19-6.58 11.67 0 19.95 5.41 22.18 15.7a56 56 0 0 1 .85 11.78v29ZM524.26 97.13c0 5.73 3.5 12.2 11.14 12.2 5.94 0 10.5-3.93 10.5-9.55 0-6.15-4.56-8.91-9.55-10.82-1.48-.64-3.18-1.06-4.88-1.81-6.47-2.33-12-5.3-12-14.32 0-8.7 7.64-15.49 16.77-15.49 10.61 0 15.38 5.73 16.44 14.85h-7.53c-.64-4.56-2.33-8.27-9.34-8.27-5 0-8.91 3.61-8.91 8.49 0 4.66 3.4 7.1 6.79 8.48 3.18 1.38 6.9 2.13 9.44 3.19 7 2.86 10.61 7.85 10.61 15.17 0 9.76-8.17 16.34-18.46 16.34-11.46 0-18-7.85-18.35-18.46ZM572.74 72.72v41.17H566V72.72h-7.9V67h7.54V56.81c0-11.35 6.25-17.08 19-17.08h.31v5.94c-7 .32-12.3 1.7-12.3 11.14V67h12.3v5.72ZM588.66 86.52A29.45 29.45 0 0 1 618.26 57a30.07 30.07 0 0 1 21.43 8.49c5.94 5.62 9 12.31 9 20.26a29.61 29.61 0 0 1-29.91 29.92c-17.18.02-30.12-12.92-30.12-29.15Zm7.32-.11c0 12.41 9 22.92 22.81 22.92 6.57 0 12.09-2.23 16.23-6.69a23.1 23.1 0 0 0 6.36-16.34c0-12.83-9.23-22.91-23.23-22.91-13.47 0-22.15 11.25-22.15 23.02ZM664.62 114.1h-7.11V81.64c0-10.82 2.65-17.51 13-21.86a22.53 22.53 0 0 1 7.21-1.8v7.32c-9.76 1.17-13.15 5.09-13.15 15.38ZM330.78 164.08c0-20.69 17.4-37.66 39.26-37.66 16 0 27.26 7.43 34.9 20h-8.48c-6.69-8.38-14.86-13.37-26.53-13.37a31.18 31.18 0 0 0-31.61 31.09c0 17 12.62 32 31.61 32a31.39 31.39 0 0 0 23.66-9.87 27.42 27.42 0 0 0 7.53-13.68h7.75c-4.46 17.5-18.89 30-38.41 30-23.34.11-39.68-16.59-39.68-38.51ZM471.14 201.43h-6.79v-8.7c-8.06 7.85-14.53 10.18-22.81 10.18-17.29 0-29.81-12.41-29.81-28.85 0-16.66 12.94-29.18 30.45-29.18 8.91 0 19.2 4.45 24 11.56a27.87 27.87 0 0 1 4.56 10.4l.63 9.55Zm-52.2-27.06c0 12.31 9.45 22.39 22.81 22.39a21.72 21.72 0 0 0 16.25-7.11c13.46-14.43 3.7-38.65-16-38.65-13.72 0-23.06 11.07-23.06 23.37ZM490.13 201.43H483V169c0-10.82 2.65-17.5 13-21.85a22.81 22.81 0 0 1 7.22-1.81v7.32c-9.76 1.17-13.16 5.1-13.16 15.39ZM513.37 184.45c0 5.73 3.5 12.2 11.14 12.2 5.94 0 10.5-3.92 10.5-9.55 0-6.15-4.56-8.91-9.55-10.82-1.48-.63-3.18-1.06-4.88-1.8-6.47-2.33-12-5.31-12-14.32 0-8.7 7.64-15.49 16.76-15.49 10.61 0 15.39 5.73 16.45 14.85h-7.53c-.64-4.56-2.34-8.28-9.34-8.28-5 0-8.91 3.61-8.91 8.49 0 4.67 3.39 7.11 6.79 8.49 3.18 1.38 6.89 2.12 9.44 3.18 7 2.87 10.61 7.85 10.61 15.17 0 9.76-8.17 16.34-18.46 16.34-11.46 0-18-7.85-18.35-18.46ZM303.36 37.57h6.88v182.29h-6.88zM201.46 126.19a.7.7 0 0 0 .7.7h17a.7.7 0 0 0 0-1.4h-17a.7.7 0 0 0-.7.7Zm0 0a.7.7 0 0 0 .7.7h17a.7.7 0 0 0 0-1.4h-17a.7.7 0 0 0-.7.7Zm0 0a.7.7 0 0 0 .7.7h17a.7.7 0 0 0 0-1.4h-17a.7.7 0 0 0-.7.7Zm0 0a.7.7 0 0 0 .7.7h17a.7.7 0 0 0 0-1.4h-17a.7.7 0 0 0-.7.7Zm0 0a.7.7 0 0 0 .7.7h17a.7.7 0 0 0 0-1.4h-17a.7.7 0 0 0-.7.7Zm0 0a.7.7 0 0 0 .7.7h17a.7.7 0 0 0 0-1.4h-17a.7.7 0 0 0-.7.7Zm0 0a.7.7 0 0 0 .7.7h17a.7.7 0 0 0 0-1.4h-17a.7.7 0 0 0-.7.7Zm0 0a.7.7 0 0 0 .7.7h17a.7.7 0 0 0 0-1.4h-17a.7.7 0 0 0-.7.7Zm0 0a.7.7 0 0 0 .7.7h17a.7.7 0 0 0 0-1.4h-17a.7.7 0 0 0-.7.7ZM99.77 103.81c3 5.19 6.36 3.76 11.28 4.93 1.66.4 8.88 1 17.72 1.61a47.12 47.12 0 0 0-3.32-7.54c-1.56-2.44.39-2.63.39-2.63C152.94 95 169.1 106 169.1 106c2.91-1.68 8.1 1.57 8.1 1.57s1.56 1.3.91 4.15c-.15.63.44 1.1 1.45 1.43 3.54 1.18 12.34.83 13.4 1 0 0-30.54-17.31-47.53-17.7s-48.64 2.17-45.66 7.36Zm10.8.26s5.57-1.89 5.74-1.65c2.77 3.89 1.65 5.74 1.65 5.74s-5.83-.68-7.39-2.24 0-1.85 0-1.85Zm90.89 22.12a.7.7 0 0 0 .7.7h17a.7.7 0 0 0 0-1.4h-17a.7.7 0 0 0-.7.7ZM99.77 103.81c3 5.19 6.36 3.76 11.28 4.93 1.66.4 8.88 1 17.72 1.61a47.12 47.12 0 0 0-3.32-7.54c-1.56-2.44.39-2.63.39-2.63C152.94 95 169.1 106 169.1 106c2.91-1.68 8.1 1.57 8.1 1.57s1.56 1.3.91 4.15c-.15.63.44 1.1 1.45 1.43 3.54 1.18 12.34.83 13.4 1 0 0-30.54-17.31-47.53-17.7s-48.64 2.17-45.66 7.36Zm10.8.26s5.57-1.89 5.74-1.65c2.77 3.89 1.65 5.74 1.65 5.74s-5.83-.68-7.39-2.24 0-1.85 0-1.85Zm90.89 22.12a.7.7 0 0 0 .7.7h17a.7.7 0 0 0 0-1.4h-17a.7.7 0 0 0-.7.7ZM99.77 103.81c3 5.19 6.36 3.76 11.28 4.93 1.66.4 8.88 1 17.72 1.61a47.12 47.12 0 0 0-3.32-7.54c-1.56-2.44.39-2.63.39-2.63C152.94 95 169.1 106 169.1 106c2.91-1.68 8.1 1.57 8.1 1.57s1.56 1.3.91 4.15c-.15.63.44 1.1 1.45 1.43 3.54 1.18 12.34.83 13.4 1 0 0-30.54-17.31-47.53-17.7s-48.64 2.17-45.66 7.36Zm10.8.26s5.57-1.89 5.74-1.65c2.77 3.89 1.65 5.74 1.65 5.74s-5.83-.68-7.39-2.24 0-1.85 0-1.85Zm90.89 22.12a.7.7 0 0 0 .7.7h17a.7.7 0 0 0 0-1.4h-17a.7.7 0 0 0-.7.7ZM99.77 103.81c3 5.19 6.36 3.76 11.28 4.93 1.66.4 8.88 1 17.72 1.61a47.12 47.12 0 0 0-3.32-7.54c-1.56-2.44.39-2.63.39-2.63C152.94 95 169.1 106 169.1 106c2.91-1.68 8.1 1.57 8.1 1.57s1.56 1.3.91 4.15c-.15.63.44 1.1 1.45 1.43 3.54 1.18 12.34.83 13.4 1 0 0-30.54-17.31-47.53-17.7s-48.64 2.17-45.66 7.36Zm10.8.26s5.57-1.89 5.74-1.65c2.77 3.89 1.65 5.74 1.65 5.74s-5.83-.68-7.39-2.24 0-1.85 0-1.85Zm90.89 22.12a.7.7 0 0 0 .7.7h17a.7.7 0 0 0 0-1.4h-17a.7.7 0 0 0-.7.7ZM99.77 103.81c3 5.19 6.36 3.76 11.28 4.93 1.66.4 8.88 1 17.72 1.61a47.12 47.12 0 0 0-3.32-7.54c-1.56-2.44.39-2.63.39-2.63C152.94 95 169.1 106 169.1 106c2.91-1.68 8.1 1.57 8.1 1.57s1.56 1.3.91 4.15c-.15.63.44 1.1 1.45 1.43 3.54 1.18 12.34.83 13.4 1 0 0-30.54-17.31-47.53-17.7s-48.64 2.17-45.66 7.36Zm10.8.26s5.57-1.89 5.74-1.65c2.77 3.89 1.65 5.74 1.65 5.74s-5.83-.68-7.39-2.24 0-1.85 0-1.85Zm90.89 22.12a.7.7 0 0 0 .7.7h17a.7.7 0 0 0 0-1.4h-17a.7.7 0 0 0-.7.7ZM99.77 103.81c3 5.19 6.36 3.76 11.28 4.93 1.66.4 8.88 1 17.72 1.61a47.12 47.12 0 0 0-3.32-7.54c-1.56-2.44.39-2.63.39-2.63C152.94 95 169.1 106 169.1 106c2.91-1.68 8.1 1.57 8.1 1.57s1.56 1.3.91 4.15c-.15.63.44 1.1 1.45 1.43 3.54 1.18 12.34.83 13.4 1 0 0-30.54-17.31-47.53-17.7s-48.64 2.17-45.66 7.36Zm10.8.26s5.57-1.89 5.74-1.65c2.77 3.89 1.65 5.74 1.65 5.74s-5.83-.68-7.39-2.24 0-1.85 0-1.85Zm-70.81 42.12c-3.32 3.31 18.47 8.17 18.47 8.17s-6.61-31.13 22.48-31.13 25.58 33.27 25.58 33.27c-.2 2 .87 2 .87 2 2.92-1.75 111.15 1.43 111.15 1.43l.91-.74c.39-12.55 2.73-34.15 27.24-34.15s21.14 34.05 21.14 34.05c3 .64 14.27-2.08 14.27-2.08 1-3.57 3.11-2.53 3.11-2.53l.58-4.41c1.75.32.72-1.82.72-1.82a7 7 0 0 0 .65-5.37c.32-4.28 0-10.84 0-10.84-20.11-17.89-81.19-20.87-81.19-20.87-2-.12-22.45-9.73-22.45-9.73-32.42-16.34-69.38-9.08-78.07-7.39S51.91 106.7 51.91 106.7a38.38 38.38 0 0 0-9.63-2.24c-4.57-.3-2.34 3.5-2.34 3.5l2.15 4.58a32.24 32.24 0 0 0 7.09 3.13 11.08 11.08 0 0 0 3.19.46c4.29-.09-.09 5.74-4.07 5.89a59.5 59.5 0 0 1-9.93-.92l-2 1.84c-4.21 12.94 3.39 23.25 3.39 23.25Zm129.79-32.07-56-3.53-12.84-2.43-4.12-4.77s-10.08-6.65 44.75-8.18c0 0 11.77-1.23 31.61 7.19s22.7 12.31 22.7 12.31.58.64-1 .78-13 0-13 0Zm-39.06 3.81h9a1.15 1.15 0 1 1 0 2.29h-9a1.15 1.15 0 1 1 0-2.29Zm67.33 33.48s-53.56-1.43-63.55-4.15c-9.67-2.64-11.56-20.59-11.67-21.71.69 3.33 5.32 13 5.32 13 5.44 10.57 20.1 10.06 20.1 10.06l48.25 1.56c1.94-4.2 1.55-21.5 1.55-21.5 2.08 4.92 0 22.74 0 22.74Zm70.43-25.92s11.09 1 17 8a30.83 30.83 0 0 1-17-8ZM221.11 138l.17-.34c.48-.89 1-1.74 1.48-2.53.21-.36.43-.7.66-1 .57-.85 1.13-1.63 1.72-2.37.16-.21.32-.41.49-.6.39-.49.8-1 1.21-1.4.23-.25.47-.49.71-.73l.14-.14.57-.54c.18-.17.36-.34.54-.49l.6-.52c.12-.1.23-.19.36-.28l.15-.12c.17-.14.33-.27.5-.39s.32-.24.48-.34l.29-.2a3.64 3.64 0 0 1 .35-.24 3.7 3.7 0 0 1 .33-.21 6 6 0 0 1 .58-.35c.54-.32 1.08-.61 1.63-.87.24-.12.47-.23.71-.33.49-.21 1-.39 1.47-.56.25-.09.49-.17.74-.24l.72-.21c.25-.07.48-.13.73-.18s.42-.1.63-.13a1 1 0 0 1 .24 0l.76-.13.53-.07.72-.08 1.07-.07H244.6c.24 0 .48 0 .71.05h.56l1 .11c.33 0 .65.1 1 .15l.8.14.77.16.77.17c.25 0 .49.11.74.18.65.17 1.27.35 1.87.53.9.27 1.73.55 2.49.81l.74.26 1.9.65c6.49 2.1 6 0 6 0C248.69 119 228.3 118 228.3 118c13.88-.65 36.06 4.8 37 6.49s6.48 7.9 12.45 9 9.34 3.69 4.28 3.3-10.12 2.6-10.12 2.6h-4.15s-5.06-15.44-22.44-16H243l-1.06.09c-.2 0-.4 0-.6.07h-.07l-.69.1c-.39.06-.77.12-1.14.2l-1.07.25-.47.12-1.32.41-1 .34-.84.35-.41.18-.4.19a23.5 23.5 0 0 0-2.28 1.21c-.41.25-.58.36-.86.55s-.8.53-1.17.81l-.4.3-.39.3a30.09 30.09 0 0 0-3.92 3.75c-.14.15-.27.31-.4.46-.53.62-1 1.22-1.42 1.79l-.22.3c-.2.27-.38.53-.55.79l-.23.34c-.25.36-.46.7-.65 1l-.25.42Zm-5.06-8.41c-3.44.38-15.37.71-16.22-1.56s1.69-4.73 1.69-4.73 23 .24 21.34 2.22c0-.03-3.38 3.65-6.81 4.04Zm-105.52 23.76a61.71 61.71 0 0 1 13.36-1.3c6.75 0 80.29 2.6 80.29 2.6s16.34.91 12.06 2.59l-107-2.2s-2.6-1.04 1.29-1.69Zm-27.1-31.19s5.25-1.36 16.34 4.18c0 0 .39-4.28 12.93-4.32 12.17 0 80.67 3.26 84.92 3.47-4.37-.14-78.13-2.33-82.15-1.64 0 0 8.1 3.89-9.08 14.65 0 0-5.93-15.66-22.96-16.34Zm-46.79 7.5s-.69-3.65 1-6c0 0 15.86 6.71 24 4.57 0 0-4.67 4.58-5.15 11 0 .3-2.73-.68-4.38-2.62s-6.11-6.38-15.47-6.95Zm142.92-16.51c3.54 1.18 12.34.83 13.4 1 0 0-30.54-17.31-47.53-17.7s-48.64 2.2-45.66 7.39 6.36 3.76 11.28 4.93c1.66.4 8.88 1 17.72 1.61a47.12 47.12 0 0 0-3.32-7.54c-1.56-2.44.39-2.63.39-2.63C152.94 95 169.1 106 169.1 106c2.91-1.68 8.1 1.57 8.1 1.57s1.56 1.3.91 4.15c-.11.63.44 1.1 1.45 1.43Zm-61.6-5s-5.83-.68-7.39-2.24 0-1.85 0-1.85 5.57-1.89 5.74-1.65c2.77 3.9 1.69 5.75 1.69 5.75Zm84.2 18.73h17a.7.7 0 0 0 0-1.4h-17a.7.7 0 1 0 0 1.4ZM99.77 103.81c3 5.19 6.36 3.76 11.28 4.93 1.66.4 8.88 1 17.72 1.61a47.12 47.12 0 0 0-3.32-7.54c-1.56-2.44.39-2.63.39-2.63C152.94 95 169.1 106 169.1 106c2.91-1.68 8.1 1.57 8.1 1.57s1.56 1.3.91 4.15c-.15.63.44 1.1 1.45 1.43 3.54 1.18 12.34.83 13.4 1 0 0-30.54-17.31-47.53-17.7s-48.64 2.17-45.66 7.36Zm10.8.26s5.57-1.89 5.74-1.65c2.77 3.89 1.65 5.74 1.65 5.74s-5.83-.68-7.39-2.24 0-1.85 0-1.85Zm90.89 22.12a.7.7 0 0 0 .7.7h17a.7.7 0 0 0 0-1.4h-17a.7.7 0 0 0-.7.7ZM99.77 103.81c3 5.19 6.36 3.76 11.28 4.93 1.66.4 8.88 1 17.72 1.61a47.12 47.12 0 0 0-3.32-7.54c-1.56-2.44.39-2.63.39-2.63C152.94 95 169.1 106 169.1 106c2.91-1.68 8.1 1.57 8.1 1.57s1.56 1.3.91 4.15c-.15.63.44 1.1 1.45 1.43 3.54 1.18 12.34.83 13.4 1 0 0-30.54-17.31-47.53-17.7s-48.64 2.17-45.66 7.36Zm10.8.26s5.57-1.89 5.74-1.65c2.77 3.89 1.65 5.74 1.65 5.74s-5.83-.68-7.39-2.24 0-1.85 0-1.85Zm90.89 22.12a.7.7 0 0 0 .7.7h17a.7.7 0 0 0 0-1.4h-17a.7.7 0 0 0-.7.7ZM99.77 103.81c3 5.19 6.36 3.76 11.28 4.93 1.66.4 8.88 1 17.72 1.61a47.12 47.12 0 0 0-3.32-7.54c-1.56-2.44.39-2.63.39-2.63C152.94 95 169.1 106 169.1 106c2.91-1.68 8.1 1.57 8.1 1.57s1.56 1.3.91 4.15c-.15.63.44 1.1 1.45 1.43 3.54 1.18 12.34.83 13.4 1 0 0-30.54-17.31-47.53-17.7s-48.64 2.17-45.66 7.36Zm10.8.26s5.57-1.89 5.74-1.65c2.77 3.89 1.65 5.74 1.65 5.74s-5.83-.68-7.39-2.24 0-1.85 0-1.85Zm90.89 22.12a.7.7 0 0 0 .7.7h17a.7.7 0 0 0 0-1.4h-17a.7.7 0 0 0-.7.7ZM99.77 103.81c3 5.19 6.36 3.76 11.28 4.93 1.66.4 8.88 1 17.72 1.61a47.12 47.12 0 0 0-3.32-7.54c-1.56-2.44.39-2.63.39-2.63C152.94 95 169.1 106 169.1 106c2.91-1.68 8.1 1.57 8.1 1.57s1.56 1.3.91 4.15c-.15.63.44 1.1 1.45 1.43 3.54 1.18 12.34.83 13.4 1 0 0-30.54-17.31-47.53-17.7s-48.64 2.17-45.66 7.36Zm10.8.26s5.57-1.89 5.74-1.65c2.77 3.89 1.65 5.74 1.65 5.74s-5.83-.68-7.39-2.24 0-1.85 0-1.85Zm90.89 22.12a.7.7 0 0 0 .7.7h17a.7.7 0 0 0 0-1.4h-17a.7.7 0 0 0-.7.7ZM99.77 103.81c3 5.19 6.36 3.76 11.28 4.93 1.66.4 8.88 1 17.72 1.61a47.12 47.12 0 0 0-3.32-7.54c-1.56-2.44.39-2.63.39-2.63C152.94 95 169.1 106 169.1 106c2.91-1.68 8.1 1.57 8.1 1.57s1.56 1.3.91 4.15c-.15.63.44 1.1 1.45 1.43 3.54 1.18 12.34.83 13.4 1 0 0-30.54-17.31-47.53-17.7s-48.64 2.17-45.66 7.36Zm10.8.26s5.57-1.89 5.74-1.65c2.77 3.89 1.65 5.74 1.65 5.74s-5.83-.68-7.39-2.24 0-1.85 0-1.85Zm90.89 22.12a.7.7 0 0 0 .7.7h17a.7.7 0 0 0 0-1.4h-17a.7.7 0 0 0-.7.7ZM99.77 103.81c3 5.19 6.36 3.76 11.28 4.93 1.66.4 8.88 1 17.72 1.61a47.12 47.12 0 0 0-3.32-7.54c-1.56-2.44.39-2.63.39-2.63C152.94 95 169.1 106 169.1 106c2.91-1.68 8.1 1.57 8.1 1.57s1.56 1.3.91 4.15c-.15.63.44 1.1 1.45 1.43 3.54 1.18 12.34.83 13.4 1 0 0-30.54-17.31-47.53-17.7s-48.64 2.17-45.66 7.36Zm10.8.26s5.57-1.89 5.74-1.65c2.77 3.89 1.65 5.74 1.65 5.74s-5.83-.68-7.39-2.24 0-1.85 0-1.85Zm90.89 22.12a.7.7 0 0 0 .7.7h17a.7.7 0 0 0 0-1.4h-17a.7.7 0 0 0-.7.7Zm0 0a.7.7 0 0 0 .7.7h17a.7.7 0 0 0 0-1.4h-17a.7.7 0 0 0-.7.7Zm0 0a.7.7 0 0 0 .7.7h17a.7.7 0 0 0 0-1.4h-17a.7.7 0 0 0-.7.7Zm0 0a.7.7 0 0 0 .7.7h17a.7.7 0 0 0 0-1.4h-17a.7.7 0 0 0-.7.7Zm0 0a.7.7 0 0 0 .7.7h17a.7.7 0 0 0 0-1.4h-17a.7.7 0 0 0-.7.7Zm0 0a.7.7 0 0 0 .7.7h17a.7.7 0 0 0 0-1.4h-17a.7.7 0 0 0-.7.7Zm0 0a.7.7 0 0 0 .7.7h17a.7.7 0 0 0 0-1.4h-17a.7.7 0 0 0-.7.7Zm-36-13.69c-2.14-1.56-.06-4-.06-4-2.5-.24-2.4 3.51-2.4 3.51-4.28.32-33.4-2.19-33.4-2.19 22.83 3.75 35.86 2.68 35.86 2.68Z" />
    <path d="M285.16 152.55a2.23 2.23 0 0 0-2 2.25l-13.25 2.39s24.33-.61 15.25-4.64ZM220.48 139.17l.17-.35ZM201.46 126.19a.7.7 0 0 0 .7.7h17a.7.7 0 0 0 0-1.4h-17a.7.7 0 0 0-.7.7Z" />
    <path d="M201.46 126.19a.7.7 0 0 0 .7.7h17a.7.7 0 0 0 0-1.4h-17a.7.7 0 0 0-.7.7ZM99.77 103.81c3 5.19 6.36 3.76 11.28 4.93 1.66.4 8.88 1 17.72 1.61a47.12 47.12 0 0 0-3.32-7.54c-1.56-2.44.39-2.63.39-2.63C152.94 95 169.1 106 169.1 106c2.91-1.68 8.1 1.57 8.1 1.57s1.56 1.3.91 4.15c-.15.63.44 1.1 1.45 1.43 3.54 1.18 12.34.83 13.4 1 0 0-30.54-17.31-47.53-17.7s-48.64 2.17-45.66 7.36Zm10.8.26s5.57-1.89 5.74-1.65c2.77 3.89 1.65 5.74 1.65 5.74s-5.83-.68-7.39-2.24 0-1.85 0-1.85Z" />
    <path d="M128.77 110.35a47.12 47.12 0 0 0-3.32-7.54c-1.56-2.44.39-2.63.39-2.63C152.94 95 169.1 106 169.1 106c2.91-1.68 8.1 1.57 8.1 1.57s1.56 1.3.91 4.15c-.15.63.44 1.1 1.45 1.43 3.54 1.18 12.34.83 13.4 1 0 0-30.54-17.31-47.53-17.7s-48.64 2.2-45.66 7.39 6.36 3.76 11.28 4.93c1.66.4 8.88 1 17.72 1.61m-18.2-6.28s5.57-1.89 5.74-1.65c2.77 3.89 1.65 5.74 1.65 5.74s-5.83-.68-7.39-2.24 0-1.88 0-1.88Z" />
    <path d="M169 106.27s-2 2.7-1 5.58 9.24 1.49 9.28.62 1.65-3.63-2-5.25a10.34 10.34 0 0 0-6.28-.95ZM242.94 150.71s0-.01 0 0Zm0 0s0-.01 0 0Zm0 0s0-.01 0 0Zm0 0s0-.01 0 0Zm0 0s0-.01 0 0Zm0 0s0-.01 0 0Zm0 0s0-.01 0 0Zm0 0s0-.01 0 0Zm0 0s0-.01 0 0Zm0 0s0-.01 0 0Zm-14.64-2.17a17.74 17.74 0 0 0 .17 2.33c.82-1.14 3.63-3.31 13.06-2.51a2.25 2.25 0 0 1 .34-1.05c-8.47-4.69-9.46-8-9.46-9.3a15.5 15.5 0 0 0-4.11 10.53Zm17.94 0v.26c9.41 0 12 2.44 12.73 3.65a15.69 15.69 0 0 0 .5-3.91 15.36 15.36 0 0 0-3.3-9.54c.06 1-.62 4.43-10.09 8.68a2.06 2.06 0 0 1 .16.86Zm.11 15.38a15.56 15.56 0 0 0 11-7.65c-1.31.41-4.85.45-11.85-6.06a2.4 2.4 0 0 1-.94.57c3.77 8.8 2.59 12.07 1.79 13.14Zm-3.41-13.21s0-.01 0 0Zm-5.83-16.19c1 .16 4.2 1.46 6.38 11.7a1.63 1.63 0 0 1 .39 0 2 2 0 0 1 .73.12c2-9.18 4.89-11.24 6.23-11.7a15.57 15.57 0 0 0-13.73-.09Zm-7.52 20.22a15.6 15.6 0 0 0 10.12 8.81c-.68-1.35-1.25-4.87 3.23-12.84a2.28 2.28 0 0 1-.86-.65c-8.08 5.94-11.44 5.24-12.49 4.68Zm-1.29-6.2a17.74 17.74 0 0 0 .17 2.33c.82-1.14 3.63-3.31 13.06-2.51a2.25 2.25 0 0 1 .34-1.05c-8.47-4.69-9.46-8-9.46-9.3a15.5 15.5 0 0 0-4.11 10.53Zm1.29 6.2a15.6 15.6 0 0 0 10.12 8.81c-.68-1.35-1.25-4.87 3.23-12.84a2.28 2.28 0 0 1-.86-.65c-8.08 5.94-11.44 5.24-12.49 4.68Zm7.52-20.22c1 .16 4.2 1.46 6.38 11.7a1.63 1.63 0 0 1 .39 0 2 2 0 0 1 .73.12c2-9.18 4.89-11.24 6.23-11.7a15.57 15.57 0 0 0-13.73-.09Zm5.83 16.19s0-.01 0 0Zm3.41 13.21a15.56 15.56 0 0 0 11-7.65c-1.31.41-4.85.45-11.85-6.06a2.4 2.4 0 0 1-.94.57c3.77 8.8 2.59 12.07 1.79 13.14Zm-.11-15.38v.26c9.41 0 12 2.44 12.73 3.65a15.69 15.69 0 0 0 .5-3.91 15.36 15.36 0 0 0-3.3-9.54c.06 1-.62 4.43-10.09 8.68a2.06 2.06 0 0 1 .16.86Zm-17.94 0a17.74 17.74 0 0 0 .17 2.33c.82-1.14 3.63-3.31 13.06-2.51a2.25 2.25 0 0 1 .34-1.05c-8.47-4.69-9.46-8-9.46-9.3a15.5 15.5 0 0 0-4.11 10.53Zm17.94 0v.26c9.41 0 12 2.44 12.73 3.65a15.69 15.69 0 0 0 .5-3.91 15.36 15.36 0 0 0-3.3-9.54c.06 1-.62 4.43-10.09 8.68a2.06 2.06 0 0 1 .16.86Zm.11 15.38a15.56 15.56 0 0 0 11-7.65c-1.31.41-4.85.45-11.85-6.06a2.4 2.4 0 0 1-.94.57c3.77 8.8 2.59 12.07 1.79 13.14Zm-3.41-13.21s0-.01 0 0Zm-5.83-16.19c1 .16 4.2 1.46 6.38 11.7a1.63 1.63 0 0 1 .39 0 2 2 0 0 1 .73.12c2-9.18 4.89-11.24 6.23-11.7a15.57 15.57 0 0 0-13.73-.09Zm-7.52 20.22a15.6 15.6 0 0 0 10.12 8.81c-.68-1.35-1.25-4.87 3.23-12.84a2.28 2.28 0 0 1-.86-.65c-8.08 5.94-11.44 5.24-12.49 4.68Zm-1.29-6.2a17.74 17.74 0 0 0 .17 2.33c.82-1.14 3.63-3.31 13.06-2.51a2.25 2.25 0 0 1 .34-1.05c-8.47-4.69-9.46-8-9.46-9.3a15.5 15.5 0 0 0-4.11 10.53Zm1.29 6.2a15.6 15.6 0 0 0 10.12 8.81c-.68-1.35-1.25-4.87 3.23-12.84a2.28 2.28 0 0 1-.86-.65c-8.08 5.94-11.44 5.24-12.49 4.68Zm7.52-20.22c1 .16 4.2 1.46 6.38 11.7a1.63 1.63 0 0 1 .39 0 2 2 0 0 1 .73.12c2-9.18 4.89-11.24 6.23-11.7a15.57 15.57 0 0 0-13.73-.09Zm5.83 16.19s0-.01 0 0Zm3.41 13.21a15.56 15.56 0 0 0 11-7.65c-1.31.41-4.85.45-11.85-6.06a2.4 2.4 0 0 1-.94.57c3.77 8.8 2.59 12.07 1.79 13.14Zm-.11-15.38v.26c9.41 0 12 2.44 12.73 3.65a15.69 15.69 0 0 0 .5-3.91 15.36 15.36 0 0 0-3.3-9.54c.06 1-.62 4.43-10.09 8.68a2.06 2.06 0 0 1 .16.86Zm-17.94 0a17.74 17.74 0 0 0 .17 2.33c.82-1.14 3.63-3.31 13.06-2.51a2.25 2.25 0 0 1 .34-1.05c-8.47-4.69-9.46-8-9.46-9.3a15.5 15.5 0 0 0-4.11 10.53Zm17.94 0v.26c9.41 0 12 2.44 12.73 3.65a15.69 15.69 0 0 0 .5-3.91 15.36 15.36 0 0 0-3.3-9.54c.06 1-.62 4.43-10.09 8.68a2.06 2.06 0 0 1 .16.86Zm.11 15.38a15.56 15.56 0 0 0 11-7.65c-1.31.41-4.85.45-11.85-6.06a2.4 2.4 0 0 1-.94.57c3.77 8.8 2.59 12.07 1.79 13.14Zm-3.41-13.21s0-.01 0 0Zm-5.83-16.19c1 .16 4.2 1.46 6.38 11.7a1.63 1.63 0 0 1 .39 0 2 2 0 0 1 .73.12c2-9.18 4.89-11.24 6.23-11.7a15.57 15.57 0 0 0-13.73-.09Zm-7.52 20.22a15.6 15.6 0 0 0 10.12 8.81c-.68-1.35-1.25-4.87 3.23-12.84a2.28 2.28 0 0 1-.86-.65c-8.08 5.94-11.44 5.24-12.49 4.68Zm-1.29-6.2a17.74 17.74 0 0 0 .17 2.33c.82-1.14 3.63-3.31 13.06-2.51a2.25 2.25 0 0 1 .34-1.05c-8.47-4.69-9.46-8-9.46-9.3a15.5 15.5 0 0 0-4.11 10.53Zm1.29 6.2a15.6 15.6 0 0 0 10.12 8.81c-.68-1.35-1.25-4.87 3.23-12.84a2.28 2.28 0 0 1-.86-.65c-8.08 5.94-11.44 5.24-12.49 4.68Zm7.52-20.22c1 .16 4.2 1.46 6.38 11.7a1.63 1.63 0 0 1 .39 0 2 2 0 0 1 .73.12c2-9.18 4.89-11.24 6.23-11.7a15.57 15.57 0 0 0-13.73-.09Zm5.83 16.19s0-.01 0 0Zm3.41 13.21a15.56 15.56 0 0 0 11-7.65c-1.31.41-4.85.45-11.85-6.06a2.4 2.4 0 0 1-.94.57c3.77 8.8 2.59 12.07 1.79 13.14Zm-.11-15.38v.26c9.41 0 12 2.44 12.73 3.65a15.69 15.69 0 0 0 .5-3.91 15.36 15.36 0 0 0-3.3-9.54c.06 1-.62 4.43-10.09 8.68a2.06 2.06 0 0 1 .16.86Zm-17.94 0a17.74 17.74 0 0 0 .17 2.33c.82-1.14 3.63-3.31 13.06-2.51a2.25 2.25 0 0 1 .34-1.05c-8.47-4.69-9.46-8-9.46-9.3a15.5 15.5 0 0 0-4.11 10.53Zm17.94 0v.26c9.41 0 12 2.44 12.73 3.65a15.69 15.69 0 0 0 .5-3.91 15.36 15.36 0 0 0-3.3-9.54c.06 1-.62 4.43-10.09 8.68a2.06 2.06 0 0 1 .16.86Zm.11 15.38a15.56 15.56 0 0 0 11-7.65c-1.31.41-4.85.45-11.85-6.06a2.4 2.4 0 0 1-.94.57c3.77 8.8 2.59 12.07 1.79 13.14Zm-3.41-13.21s0-.01 0 0Zm-5.83-16.19c1 .16 4.2 1.46 6.38 11.7a1.63 1.63 0 0 1 .39 0 2 2 0 0 1 .73.12c2-9.18 4.89-11.24 6.23-11.7a15.57 15.57 0 0 0-13.73-.09Zm-7.52 20.22a15.6 15.6 0 0 0 10.12 8.81c-.68-1.35-1.25-4.87 3.23-12.84a2.28 2.28 0 0 1-.86-.65c-8.08 5.94-11.44 5.24-12.49 4.68Zm-1.29-6.2a17.74 17.74 0 0 0 .17 2.33c.82-1.14 3.63-3.31 13.06-2.51a2.25 2.25 0 0 1 .34-1.05c-8.47-4.69-9.46-8-9.46-9.3a15.5 15.5 0 0 0-4.11 10.53Zm1.29 6.2a15.6 15.6 0 0 0 10.12 8.81c-.68-1.35-1.25-4.87 3.23-12.84a2.28 2.28 0 0 1-.86-.65c-8.08 5.94-11.44 5.24-12.49 4.68Zm7.52-20.22c1 .16 4.2 1.46 6.38 11.7a1.63 1.63 0 0 1 .39 0 2 2 0 0 1 .73.12c2-9.18 4.89-11.24 6.23-11.7a15.57 15.57 0 0 0-13.73-.09Zm5.83 16.19s0-.01 0 0Zm3.41 13.21a15.56 15.56 0 0 0 11-7.65c-1.31.41-4.85.45-11.85-6.06a2.4 2.4 0 0 1-.94.57c3.77 8.8 2.59 12.07 1.79 13.14Zm-.11-15.38v.26c9.41 0 12 2.44 12.73 3.65a15.69 15.69 0 0 0 .5-3.91 15.36 15.36 0 0 0-3.3-9.54c.06 1-.62 4.43-10.09 8.68a2.06 2.06 0 0 1 .16.86Zm-17.94 0a17.74 17.74 0 0 0 .17 2.33c.82-1.14 3.63-3.31 13.06-2.51a2.25 2.25 0 0 1 .34-1.05c-8.47-4.69-9.46-8-9.46-9.3a15.5 15.5 0 0 0-4.11 10.53Zm17.94 0v.26c9.41 0 12 2.44 12.73 3.65a15.69 15.69 0 0 0 .5-3.91 15.36 15.36 0 0 0-3.3-9.54c.06 1-.62 4.43-10.09 8.68a2.06 2.06 0 0 1 .16.86Zm.11 15.38a15.56 15.56 0 0 0 11-7.65c-1.31.41-4.85.45-11.85-6.06a2.4 2.4 0 0 1-.94.57c3.77 8.8 2.59 12.07 1.79 13.14Zm-3.41-13.21s0-.01 0 0Zm-5.83-16.19c1 .16 4.2 1.46 6.38 11.7a1.63 1.63 0 0 1 .39 0 2 2 0 0 1 .73.12c2-9.18 4.89-11.24 6.23-11.7a15.57 15.57 0 0 0-13.73-.09Zm-7.52 20.22a15.6 15.6 0 0 0 10.12 8.81c-.68-1.35-1.25-4.87 3.23-12.84a2.28 2.28 0 0 1-.86-.65c-8.08 5.94-11.44 5.24-12.49 4.68Zm-1.29-6.2a17.74 17.74 0 0 0 .17 2.33c.82-1.14 3.63-3.31 13.06-2.51a2.25 2.25 0 0 1 .34-1.05c-8.47-4.69-9.46-8-9.46-9.3a15.5 15.5 0 0 0-4.11 10.53Zm1.29 6.2a15.6 15.6 0 0 0 10.12 8.81c-.68-1.35-1.25-4.87 3.23-12.84a2.28 2.28 0 0 1-.86-.65c-8.08 5.94-11.44 5.24-12.49 4.68Zm7.52-20.22c1 .16 4.2 1.46 6.38 11.7a1.63 1.63 0 0 1 .39 0 2 2 0 0 1 .73.12c2-9.18 4.89-11.24 6.23-11.7a15.57 15.57 0 0 0-13.73-.09Zm5.83 16.19s0-.01 0 0Zm3.41 13.21a15.56 15.56 0 0 0 11-7.65c-1.31.41-4.85.45-11.85-6.06a2.4 2.4 0 0 1-.94.57c3.77 8.8 2.59 12.07 1.79 13.14Zm-.11-15.38v.26c9.41 0 12 2.44 12.73 3.65a15.69 15.69 0 0 0 .5-3.91 15.36 15.36 0 0 0-3.3-9.54c.06 1-.62 4.43-10.09 8.68a2.06 2.06 0 0 1 .16.86Zm-17.94 0a17.74 17.74 0 0 0 .17 2.33c.82-1.14 3.63-3.31 13.06-2.51a2.25 2.25 0 0 1 .34-1.05c-8.47-4.69-9.46-8-9.46-9.3a15.5 15.5 0 0 0-4.11 10.53Zm17.94 0v.26c9.41 0 12 2.44 12.73 3.65a15.69 15.69 0 0 0 .5-3.91 15.36 15.36 0 0 0-3.3-9.54c.06 1-.62 4.43-10.09 8.68a2.06 2.06 0 0 1 .16.86Zm.11 15.38a15.56 15.56 0 0 0 11-7.65c-1.31.41-4.85.45-11.85-6.06a2.4 2.4 0 0 1-.94.57c3.77 8.8 2.59 12.07 1.79 13.14Zm-3.41-13.21s0-.01 0 0Zm-5.83-16.19c1 .16 4.2 1.46 6.38 11.7a1.63 1.63 0 0 1 .39 0 2 2 0 0 1 .73.12c2-9.18 4.89-11.24 6.23-11.7a15.57 15.57 0 0 0-13.73-.09Zm-7.52 20.22a15.6 15.6 0 0 0 10.12 8.81c-.68-1.35-1.25-4.87 3.23-12.84a2.28 2.28 0 0 1-.86-.65c-8.08 5.94-11.44 5.24-12.49 4.68Zm-1.29-6.2a17.74 17.74 0 0 0 .17 2.33c.82-1.14 3.63-3.31 13.06-2.51a2.25 2.25 0 0 1 .34-1.05c-8.47-4.69-9.46-8-9.46-9.3a15.5 15.5 0 0 0-4.11 10.53Zm1.29 6.2a15.6 15.6 0 0 0 10.12 8.81c-.68-1.35-1.25-4.87 3.23-12.84a2.28 2.28 0 0 1-.86-.65c-8.08 5.94-11.44 5.24-12.49 4.68Zm13.9-8.52a1.63 1.63 0 0 1 .39 0 2 2 0 0 1 .73.12c2-9.18 4.89-11.24 6.23-11.7a15.57 15.57 0 0 0-13.73-.09c.98.13 4.2 1.45 6.38 11.67Zm-.53 4.46Zm1.65.1c3.72 8.8 2.54 12.07 1.74 13.14a15.56 15.56 0 0 0 11-7.65c-1.31.41-4.85.45-11.85-6.06a2.4 2.4 0 0 1-.89.57Zm1.62-2c9.41 0 12 2.44 12.73 3.65a15.69 15.69 0 0 0 .5-3.91 15.36 15.36 0 0 0-3.3-9.54c.06 1-.62 4.43-10.09 8.68a2.06 2.06 0 0 1 .17.86c0 .11-.01.19-.01.28Zm-17.93-.26a17.74 17.74 0 0 0 .17 2.33c.82-1.14 3.63-3.31 13.06-2.51a2.25 2.25 0 0 1 .34-1.05c-8.47-4.69-9.46-8-9.46-9.3a15.5 15.5 0 0 0-4.11 10.55Zm-4.85 0a20.43 20.43 0 1 0 20.43-20.42 20.43 20.43 0 0 0-20.43 20.44Zm3.91 0a16.52 16.52 0 1 1 16.52 16.52 16.52 16.52 0 0 1-16.52-16.5Zm2.23 6.2a15.6 15.6 0 0 0 10.12 8.81c-.68-1.35-1.25-4.87 3.23-12.84a2.28 2.28 0 0 1-.86-.65c-8.08 5.96-11.44 5.26-12.49 4.7Zm13.9-8.52a1.63 1.63 0 0 1 .39 0 2 2 0 0 1 .73.12c2-9.18 4.89-11.24 6.23-11.7a15.57 15.57 0 0 0-13.73-.09c.98.15 4.2 1.47 6.38 11.69Zm-.53 4.46Zm1.65.1c3.72 8.8 2.54 12.07 1.74 13.14a15.56 15.56 0 0 0 11-7.65c-1.31.41-4.85.45-11.85-6.06a2.4 2.4 0 0 1-.89.59Zm1.62-2c9.41 0 12 2.44 12.73 3.65a15.69 15.69 0 0 0 .5-3.91 15.36 15.36 0 0 0-3.3-9.54c.06 1-.62 4.43-10.09 8.68a2.06 2.06 0 0 1 .17.86c0 .13-.01.21-.01.3Zm-17.93-.26a17.74 17.74 0 0 0 .17 2.33c.82-1.14 3.63-3.31 13.06-2.51a2.25 2.25 0 0 1 .34-1.05c-8.47-4.69-9.46-8-9.46-9.3a15.5 15.5 0 0 0-4.11 10.57Zm17.94 0v.26c9.41 0 12 2.44 12.73 3.65a15.69 15.69 0 0 0 .5-3.91 15.36 15.36 0 0 0-3.3-9.54c.06 1-.62 4.43-10.09 8.68a2.06 2.06 0 0 1 .16.9Zm.11 15.38a15.56 15.56 0 0 0 11-7.65c-1.31.41-4.85.45-11.85-6.06a2.4 2.4 0 0 1-.94.57c3.77 8.84 2.59 12.11 1.79 13.18Zm-3.41-13.21v.04Zm-5.83-16.19c1 .16 4.2 1.46 6.38 11.7a1.63 1.63 0 0 1 .39 0 2 2 0 0 1 .73.12c2-9.18 4.89-11.24 6.23-11.7a15.57 15.57 0 0 0-13.73-.09Zm-7.52 20.22a15.6 15.6 0 0 0 10.12 8.81c-.68-1.35-1.25-4.87 3.23-12.84a2.28 2.28 0 0 1-.86-.65c-8.08 5.98-11.44 5.28-12.49 4.72Zm-1.29-6.2a17.74 17.74 0 0 0 .17 2.33c.82-1.14 3.63-3.31 13.06-2.51a2.25 2.25 0 0 1 .34-1.05c-8.47-4.69-9.46-8-9.46-9.3a15.5 15.5 0 0 0-4.11 10.57Zm1.29 6.2a15.6 15.6 0 0 0 10.12 8.81c-.68-1.35-1.25-4.87 3.23-12.84a2.28 2.28 0 0 1-.86-.65c-8.08 5.98-11.44 5.28-12.49 4.72Zm7.52-20.22c1 .16 4.2 1.46 6.38 11.7a1.63 1.63 0 0 1 .39 0 2 2 0 0 1 .73.12c2-9.18 4.89-11.24 6.23-11.7a15.57 15.57 0 0 0-13.73-.09Zm5.83 16.19v.04Zm3.41 13.21a15.56 15.56 0 0 0 11-7.65c-1.31.41-4.85.45-11.85-6.06a2.4 2.4 0 0 1-.94.57c3.77 8.84 2.59 12.11 1.79 13.18Zm-.11-15.38v.26c9.41 0 12 2.44 12.73 3.65a15.69 15.69 0 0 0 .5-3.91 15.36 15.36 0 0 0-3.3-9.54c.06 1-.62 4.43-10.09 8.68a2.06 2.06 0 0 1 .16.9Zm-17.94 0a17.74 17.74 0 0 0 .17 2.33c.82-1.14 3.63-3.31 13.06-2.51a2.25 2.25 0 0 1 .34-1.05c-8.47-4.69-9.46-8-9.46-9.3a15.5 15.5 0 0 0-4.11 10.57Zm17.94 0v.26c9.41 0 12 2.44 12.73 3.65a15.69 15.69 0 0 0 .5-3.91 15.36 15.36 0 0 0-3.3-9.54c.06 1-.62 4.43-10.09 8.68a2.06 2.06 0 0 1 .16.9Zm.11 15.38a15.56 15.56 0 0 0 11-7.65c-1.31.41-4.85.45-11.85-6.06a2.4 2.4 0 0 1-.94.57c3.77 8.84 2.59 12.11 1.79 13.18Zm-3.41-13.21v.04Zm-5.83-16.19c1 .16 4.2 1.46 6.38 11.7a1.63 1.63 0 0 1 .39 0 2 2 0 0 1 .73.12c2-9.18 4.89-11.24 6.23-11.7a15.57 15.57 0 0 0-13.73-.09Zm-7.52 20.22a15.6 15.6 0 0 0 10.12 8.81c-.68-1.35-1.25-4.87 3.23-12.84a2.28 2.28 0 0 1-.86-.65c-8.08 5.98-11.44 5.28-12.49 4.72Zm-1.29-6.2a17.74 17.74 0 0 0 .17 2.33c.82-1.14 3.63-3.31 13.06-2.51a2.25 2.25 0 0 1 .34-1.05c-8.47-4.69-9.46-8-9.46-9.3a15.5 15.5 0 0 0-4.11 10.57Zm1.29 6.2a15.6 15.6 0 0 0 10.12 8.81c-.68-1.35-1.25-4.87 3.23-12.84a2.28 2.28 0 0 1-.86-.65c-8.08 5.98-11.44 5.28-12.49 4.72Zm7.52-20.22c1 .16 4.2 1.46 6.38 11.7a1.63 1.63 0 0 1 .39 0 2 2 0 0 1 .73.12c2-9.18 4.89-11.24 6.23-11.7a15.57 15.57 0 0 0-13.73-.09Zm5.83 16.19v.04Zm3.41 13.21a15.56 15.56 0 0 0 11-7.65c-1.31.41-4.85.45-11.85-6.06a2.4 2.4 0 0 1-.94.57c3.77 8.84 2.59 12.11 1.79 13.18Zm-.11-15.38v.26c9.41 0 12 2.44 12.73 3.65a15.69 15.69 0 0 0 .5-3.91 15.36 15.36 0 0 0-3.3-9.54c.06 1-.62 4.43-10.09 8.68a2.06 2.06 0 0 1 .16.9Zm-17.94 0a17.74 17.74 0 0 0 .17 2.33c.82-1.14 3.63-3.31 13.06-2.51a2.25 2.25 0 0 1 .34-1.05c-8.47-4.69-9.46-8-9.46-9.3a15.5 15.5 0 0 0-4.11 10.57Zm17.94 0v.26c9.41 0 12 2.44 12.73 3.65a15.69 15.69 0 0 0 .5-3.91 15.36 15.36 0 0 0-3.3-9.54c.06 1-.62 4.43-10.09 8.68a2.06 2.06 0 0 1 .16.9Zm.11 15.38a15.56 15.56 0 0 0 11-7.65c-1.31.41-4.85.45-11.85-6.06a2.4 2.4 0 0 1-.94.57c3.77 8.84 2.59 12.11 1.79 13.18Zm-3.41-13.21v.04Zm-5.83-16.19c1 .16 4.2 1.46 6.38 11.7a1.63 1.63 0 0 1 .39 0 2 2 0 0 1 .73.12c2-9.18 4.89-11.24 6.23-11.7a15.57 15.57 0 0 0-13.73-.09Zm-7.52 20.22a15.6 15.6 0 0 0 10.12 8.81c-.68-1.35-1.25-4.87 3.23-12.84a2.28 2.28 0 0 1-.86-.65c-8.08 5.98-11.44 5.28-12.49 4.72Zm-1.29-6.2a17.74 17.74 0 0 0 .17 2.33c.82-1.14 3.63-3.31 13.06-2.51a2.25 2.25 0 0 1 .34-1.05c-8.47-4.69-9.46-8-9.46-9.3a15.5 15.5 0 0 0-4.11 10.57Zm1.29 6.2a15.6 15.6 0 0 0 10.12 8.81c-.68-1.35-1.25-4.87 3.23-12.84a2.28 2.28 0 0 1-.86-.65c-8.08 5.98-11.44 5.28-12.49 4.72Zm7.52-20.22c1 .16 4.2 1.46 6.38 11.7a1.63 1.63 0 0 1 .39 0 2 2 0 0 1 .73.12c2-9.18 4.89-11.24 6.23-11.7a15.57 15.57 0 0 0-13.73-.09Zm5.83 16.19v.04Zm3.41 13.21a15.56 15.56 0 0 0 11-7.65c-1.31.41-4.85.45-11.85-6.06a2.4 2.4 0 0 1-.94.57c3.77 8.84 2.59 12.11 1.79 13.18Zm-.11-15.38v.26c9.41 0 12 2.44 12.73 3.65a15.69 15.69 0 0 0 .5-3.91 15.36 15.36 0 0 0-3.3-9.54c.06 1-.62 4.43-10.09 8.68a2.06 2.06 0 0 1 .16.9Zm-17.94 0a17.74 17.74 0 0 0 .17 2.33c.82-1.14 3.63-3.31 13.06-2.51a2.25 2.25 0 0 1 .34-1.05c-8.47-4.69-9.46-8-9.46-9.3a15.5 15.5 0 0 0-4.11 10.57Zm17.94 0v.26c9.41 0 12 2.44 12.73 3.65a15.69 15.69 0 0 0 .5-3.91 15.36 15.36 0 0 0-3.3-9.54c.06 1-.62 4.43-10.09 8.68a2.06 2.06 0 0 1 .16.9Zm.11 15.38a15.56 15.56 0 0 0 11-7.65c-1.31.41-4.85.45-11.85-6.06a2.4 2.4 0 0 1-.94.57c3.77 8.84 2.59 12.11 1.79 13.18Zm-3.41-13.21v.04Zm-5.83-16.19c1 .16 4.2 1.46 6.38 11.7a1.63 1.63 0 0 1 .39 0 2 2 0 0 1 .73.12c2-9.18 4.89-11.24 6.23-11.7a15.57 15.57 0 0 0-13.73-.09Zm-7.52 20.22a15.6 15.6 0 0 0 10.12 8.81c-.68-1.35-1.25-4.87 3.23-12.84a2.28 2.28 0 0 1-.86-.65c-8.08 5.98-11.44 5.28-12.49 4.72Zm-1.29-6.2a17.74 17.74 0 0 0 .17 2.33c.82-1.14 3.63-3.31 13.06-2.51a2.25 2.25 0 0 1 .34-1.05c-8.47-4.69-9.46-8-9.46-9.3a15.5 15.5 0 0 0-4.11 10.57Zm1.29 6.2a15.6 15.6 0 0 0 10.12 8.81c-.68-1.35-1.25-4.87 3.23-12.84a2.28 2.28 0 0 1-.86-.65c-8.08 5.98-11.44 5.28-12.49 4.72Zm7.52-20.22c1 .16 4.2 1.46 6.38 11.7a1.63 1.63 0 0 1 .39 0 2 2 0 0 1 .73.12c2-9.18 4.89-11.24 6.23-11.7a15.57 15.57 0 0 0-13.73-.09Zm5.83 16.19v.04Zm3.41 13.21a15.56 15.56 0 0 0 11-7.65c-1.31.41-4.85.45-11.85-6.06a2.4 2.4 0 0 1-.94.57c3.77 8.84 2.59 12.11 1.79 13.18Zm-.11-15.38v.26c9.41 0 12 2.44 12.73 3.65a15.69 15.69 0 0 0 .5-3.91 15.36 15.36 0 0 0-3.3-9.54c.06 1-.62 4.43-10.09 8.68a2.06 2.06 0 0 1 .16.9Zm-17.94 0a17.74 17.74 0 0 0 .17 2.33c.82-1.14 3.63-3.31 13.06-2.51a2.25 2.25 0 0 1 .34-1.05c-8.47-4.69-9.46-8-9.46-9.3a15.5 15.5 0 0 0-4.11 10.57Zm17.94 0v.26c9.41 0 12 2.44 12.73 3.65a15.69 15.69 0 0 0 .5-3.91 15.36 15.36 0 0 0-3.3-9.54c.06 1-.62 4.43-10.09 8.68a2.06 2.06 0 0 1 .16.9Zm.11 15.38a15.56 15.56 0 0 0 11-7.65c-1.31.41-4.85.45-11.85-6.06a2.4 2.4 0 0 1-.94.57c3.77 8.84 2.59 12.11 1.79 13.18Zm-3.41-13.21v.04Zm-5.83-16.19c1 .16 4.2 1.46 6.38 11.7a1.63 1.63 0 0 1 .39 0 2 2 0 0 1 .73.12c2-9.18 4.89-11.24 6.23-11.7a15.57 15.57 0 0 0-13.73-.09Zm-7.52 20.22a15.6 15.6 0 0 0 10.12 8.81c-.68-1.35-1.25-4.87 3.23-12.84a2.28 2.28 0 0 1-.86-.65c-8.08 5.98-11.44 5.28-12.49 4.72Zm-1.29-6.2a17.74 17.74 0 0 0 .17 2.33c.82-1.14 3.63-3.31 13.06-2.51a2.25 2.25 0 0 1 .34-1.05c-8.47-4.69-9.46-8-9.46-9.3a15.5 15.5 0 0 0-4.11 10.57Zm1.29 6.2a15.6 15.6 0 0 0 10.12 8.81c-.68-1.35-1.25-4.87 3.23-12.84a2.28 2.28 0 0 1-.86-.65c-8.08 5.98-11.44 5.28-12.49 4.72Zm7.52-20.22c1 .16 4.2 1.46 6.38 11.7a1.63 1.63 0 0 1 .39 0 2 2 0 0 1 .73.12c2-9.18 4.89-11.24 6.23-11.7a15.57 15.57 0 0 0-13.73-.09Zm5.83 16.19v.04Zm3.41 13.21a15.56 15.56 0 0 0 11-7.65c-1.31.41-4.85.45-11.85-6.06a2.4 2.4 0 0 1-.94.57c3.77 8.84 2.59 12.11 1.79 13.18Zm-.11-15.38v.26c9.41 0 12 2.44 12.73 3.65a15.69 15.69 0 0 0 .5-3.91 15.36 15.36 0 0 0-3.3-9.54c.06 1-.62 4.43-10.09 8.68a2.06 2.06 0 0 1 .16.9Zm-17.94 0a17.74 17.74 0 0 0 .17 2.33c.82-1.14 3.63-3.31 13.06-2.51a2.25 2.25 0 0 1 .34-1.05c-8.47-4.69-9.46-8-9.46-9.3a15.5 15.5 0 0 0-4.11 10.57Zm17.94 0v.26c9.41 0 12 2.44 12.73 3.65a15.69 15.69 0 0 0 .5-3.91 15.36 15.36 0 0 0-3.3-9.54c.06 1-.62 4.43-10.09 8.68a2.06 2.06 0 0 1 .16.9Zm.11 15.38a15.56 15.56 0 0 0 11-7.65c-1.31.41-4.85.45-11.85-6.06a2.4 2.4 0 0 1-.94.57c3.77 8.84 2.59 12.11 1.79 13.18Zm-3.41-13.21v.04Zm-5.83-16.19c1 .16 4.2 1.46 6.38 11.7a1.63 1.63 0 0 1 .39 0 2 2 0 0 1 .73.12c2-9.18 4.89-11.24 6.23-11.7a15.57 15.57 0 0 0-13.73-.09Zm-7.52 20.22a15.6 15.6 0 0 0 10.12 8.81c-.68-1.35-1.25-4.87 3.23-12.84a2.28 2.28 0 0 1-.86-.65c-8.08 5.98-11.44 5.28-12.49 4.72Zm-1.29-6.2a17.74 17.74 0 0 0 .17 2.33c.82-1.14 3.63-3.31 13.06-2.51a2.25 2.25 0 0 1 .34-1.05c-8.47-4.69-9.46-8-9.46-9.3a15.5 15.5 0 0 0-4.11 10.57Zm1.29 6.2a15.6 15.6 0 0 0 10.12 8.81c-.68-1.35-1.25-4.87 3.23-12.84a2.28 2.28 0 0 1-.86-.65c-8.08 5.98-11.44 5.28-12.49 4.72Zm7.52-20.22c1 .16 4.2 1.46 6.38 11.7a1.63 1.63 0 0 1 .39 0 2 2 0 0 1 .73.12c2-9.18 4.89-11.24 6.23-11.7a15.57 15.57 0 0 0-13.73-.09Zm5.83 16.19v.04Zm3.41 13.21a15.56 15.56 0 0 0 11-7.65c-1.31.41-4.85.45-11.85-6.06a2.4 2.4 0 0 1-.94.57c3.77 8.84 2.59 12.11 1.79 13.18Zm-.11-15.38v.26c9.41 0 12 2.44 12.73 3.65a15.69 15.69 0 0 0 .5-3.91 15.36 15.36 0 0 0-3.3-9.54c.06 1-.62 4.43-10.09 8.68a2.06 2.06 0 0 1 .16.9Zm-3.3 2.17v.04Zm0 0v.04Zm0 0v.04Zm0 0v.04Zm0 0v.04Zm0 0v.04Zm0 0v.04Zm0 0v.04Zm0 0v.04Zm0 0v.04Z" />
    <path d="M246.24 148.54v.26c9.41 0 12 2.44 12.73 3.65a15.69 15.69 0 0 0 .5-3.91 15.36 15.36 0 0 0-3.3-9.54c.06 1-.62 4.43-10.09 8.68a2.06 2.06 0 0 1 .16.86ZM246.35 163.92a15.56 15.56 0 0 0 11-7.65c-1.31.41-4.85.45-11.85-6.06a2.4 2.4 0 0 1-.94.57c3.77 8.8 2.59 12.07 1.79 13.14ZM242.94 150.71s0-.01 0 0ZM237.11 134.52c1 .16 4.2 1.46 6.38 11.7a1.63 1.63 0 0 1 .39 0 2 2 0 0 1 .73.12c2-9.18 4.89-11.24 6.23-11.7a15.57 15.57 0 0 0-13.73-.09ZM229.59 154.74a15.6 15.6 0 0 0 10.12 8.81c-.68-1.35-1.25-4.87 3.23-12.84a2.28 2.28 0 0 1-.86-.65c-8.08 5.94-11.44 5.24-12.49 4.68ZM228.3 148.54a17.74 17.74 0 0 0 .17 2.33c.82-1.14 3.63-3.31 13.06-2.51a2.25 2.25 0 0 1 .34-1.05c-8.47-4.69-9.46-8-9.46-9.3a15.5 15.5 0 0 0-4.11 10.53Z" />
    <path d="M242.94 150.71s0-.01 0 0Zm0 0s0-.01 0 0Zm0 0s0-.01 0 0Zm0 0s0-.01 0 0Zm0 0s0-.01 0 0Zm0 0s0-.01 0 0Zm0 0s0-.01 0 0Zm0 0s0-.01 0 0Zm0 0s0-.01 0 0Zm0 0s0-.01 0 0Zm-14.64-2.17a17.74 17.74 0 0 0 .17 2.33c.82-1.14 3.63-3.31 13.06-2.51a2.25 2.25 0 0 1 .34-1.05c-8.47-4.69-9.46-8-9.46-9.3a15.5 15.5 0 0 0-4.11 10.53Zm1.29 6.2a15.6 15.6 0 0 0 10.12 8.81c-.68-1.35-1.25-4.87 3.23-12.84a2.28 2.28 0 0 1-.86-.65c-8.08 5.94-11.44 5.24-12.49 4.68Zm7.52-20.22c1 .16 4.2 1.46 6.38 11.7a1.63 1.63 0 0 1 .39 0 2 2 0 0 1 .73.12c2-9.18 4.89-11.24 6.23-11.7a15.57 15.57 0 0 0-13.73-.09Zm5.83 16.19s0-.01 0 0Zm3.41 13.21a15.56 15.56 0 0 0 11-7.65c-1.31.41-4.85.45-11.85-6.06a2.4 2.4 0 0 1-.94.57c3.77 8.8 2.59 12.07 1.79 13.14Zm-.11-15.38v.26c9.41 0 12 2.44 12.73 3.65a15.69 15.69 0 0 0 .5-3.91 15.36 15.36 0 0 0-3.3-9.54c.06 1-.62 4.43-10.09 8.68a2.06 2.06 0 0 1 .16.86Zm-3.3 2.17s0-.01 0 0Zm0 0s0-.01 0 0Zm0 0s0-.01 0 0Zm0 0s0-.01 0 0Zm0 0s0-.01 0 0Zm0 0s0-.01 0 0Zm0 0s0-.01 0 0Zm0 0s0-.01 0 0Zm0 0s0-.01 0 0Zm0 0s0-.01 0 0Z" />
    <path d="M241.52 148.54a2.35 2.35 0 0 0 .53 1.49 2.28 2.28 0 0 0 .86.65 2.38 2.38 0 0 0 .93.19 2.16 2.16 0 0 0 .71-.12 2.4 2.4 0 0 0 .94-.57 2.32 2.32 0 0 0 .64-1.33v-.26a2.06 2.06 0 0 0-.17-.86s0-.05 0-.08a2.35 2.35 0 0 0-1.39-1.27 2 2 0 0 0-.73-.12 1.63 1.63 0 0 0-.39 0h-.07a2.39 2.39 0 0 0-1.54 1.05 2.25 2.25 0 0 0-.34 1.05.66.66 0 0 0 .02.18ZM242.94 150.71s0-.01 0 0ZM242.94 150.71s0-.01 0 0ZM80.3 148.47Zm0 0Zm0 0Zm0 0Zm0 0Zm0 0Zm0 0Zm0 0Zm0 0Zm0 0Zm-14.64-2.16a16.39 16.39 0 0 0 .17 2.33c.82-1.15 3.63-3.31 13.06-2.52a2.07 2.07 0 0 1 .34-1c-8.47-4.69-9.46-8-9.46-9.31a15.53 15.53 0 0 0-4.11 10.5Zm17.94 0a2.28 2.28 0 0 1 0 .26c9.42 0 12 2.43 12.73 3.65a15.51 15.51 0 0 0-2.79-13.46c.06 1-.62 4.44-10.09 8.69a2.06 2.06 0 0 1 .15.86Zm.11 15.38A15.61 15.61 0 0 0 94.76 154c-1.31.4-4.86.45-11.85-6.06a2.35 2.35 0 0 1-1 .56c3.77 8.84 2.6 12.11 1.8 13.19Zm-3.41-13.22Zm-5.84-16.18c1 .15 4.21 1.46 6.38 11.69h.39a2 2 0 0 1 .74.13c2-9.19 4.89-11.24 6.23-11.7a15.6 15.6 0 0 0-13.74-.09ZM67 152.5a15.57 15.57 0 0 0 10.12 8.81c-.68-1.34-1.25-4.86 3.23-12.84a2.19 2.19 0 0 1-.86-.64C71.38 153.8 68 153.06 67 152.5Zm-1.29-6.19a16.39 16.39 0 0 0 .17 2.33c.82-1.15 3.63-3.31 13.06-2.52a2.07 2.07 0 0 1 .34-1c-8.47-4.69-9.46-8-9.46-9.31a15.53 15.53 0 0 0-4.16 10.5ZM67 152.5a15.57 15.57 0 0 0 10.12 8.81c-.68-1.34-1.25-4.86 3.23-12.84a2.19 2.19 0 0 1-.86-.64C71.38 153.8 68 153.06 67 152.5Zm7.51-20.21c1 .15 4.21 1.46 6.38 11.69h.39a2 2 0 0 1 .74.13c2-9.19 4.89-11.24 6.23-11.7a15.6 15.6 0 0 0-13.74-.09Zm5.84 16.18Zm3.41 13.22a15.61 15.61 0 0 0 11-7.69c-1.31.4-4.86.45-11.85-6.06a2.35 2.35 0 0 1-1 .56c3.77 8.84 2.6 12.11 1.8 13.19Zm-.11-15.38a2.28 2.28 0 0 1 0 .26c9.42 0 12 2.43 12.73 3.65a15.51 15.51 0 0 0-2.79-13.46c.06 1-.62 4.44-10.09 8.69a2.06 2.06 0 0 1 .1.86Zm-17.94 0a16.39 16.39 0 0 0 .17 2.33c.82-1.15 3.63-3.31 13.06-2.52a2.07 2.07 0 0 1 .34-1c-8.47-4.69-9.46-8-9.46-9.31a15.53 15.53 0 0 0-4.16 10.5Zm17.94 0a2.28 2.28 0 0 1 0 .26c9.42 0 12 2.43 12.73 3.65a15.51 15.51 0 0 0-2.79-13.46c.06 1-.62 4.44-10.09 8.69a2.06 2.06 0 0 1 .1.86Zm.11 15.38a15.61 15.61 0 0 0 11-7.69c-1.31.4-4.86.45-11.85-6.06a2.35 2.35 0 0 1-1 .56c3.77 8.84 2.6 12.11 1.8 13.19Zm-3.46-13.22Zm-5.84-16.18c1 .15 4.21 1.46 6.38 11.69h.39a2 2 0 0 1 .74.13c2-9.19 4.89-11.24 6.23-11.7a15.6 15.6 0 0 0-13.74-.09ZM67 152.5a15.57 15.57 0 0 0 10.12 8.81c-.68-1.34-1.25-4.86 3.23-12.84a2.19 2.19 0 0 1-.86-.64C71.38 153.8 68 153.06 67 152.5Zm-1.29-6.19a16.39 16.39 0 0 0 .17 2.33c.82-1.15 3.63-3.31 13.06-2.52a2.07 2.07 0 0 1 .34-1c-8.47-4.69-9.46-8-9.46-9.31a15.53 15.53 0 0 0-4.16 10.5ZM67 152.5a15.57 15.57 0 0 0 10.12 8.81c-.68-1.34-1.25-4.86 3.23-12.84a2.19 2.19 0 0 1-.86-.64C71.38 153.8 68 153.06 67 152.5Zm7.51-20.21c1 .15 4.21 1.46 6.38 11.69h.39a2 2 0 0 1 .74.13c2-9.19 4.89-11.24 6.23-11.7a15.6 15.6 0 0 0-13.74-.09Zm5.84 16.18Zm3.41 13.22a15.61 15.61 0 0 0 11-7.69c-1.31.4-4.86.45-11.85-6.06a2.35 2.35 0 0 1-1 .56c3.77 8.84 2.6 12.11 1.8 13.19Zm-.11-15.38a2.28 2.28 0 0 1 0 .26c9.42 0 12 2.43 12.73 3.65a15.51 15.51 0 0 0-2.79-13.46c.06 1-.62 4.44-10.09 8.69a2.06 2.06 0 0 1 .1.86Zm-17.94 0a16.39 16.39 0 0 0 .17 2.33c.82-1.15 3.63-3.31 13.06-2.52a2.07 2.07 0 0 1 .34-1c-8.47-4.69-9.46-8-9.46-9.31a15.53 15.53 0 0 0-4.16 10.5Zm17.94 0a2.28 2.28 0 0 1 0 .26c9.42 0 12 2.43 12.73 3.65a15.51 15.51 0 0 0-2.79-13.46c.06 1-.62 4.44-10.09 8.69a2.06 2.06 0 0 1 .1.86Zm.11 15.38a15.61 15.61 0 0 0 11-7.69c-1.31.4-4.86.45-11.85-6.06a2.35 2.35 0 0 1-1 .56c3.77 8.84 2.6 12.11 1.8 13.19Zm-3.46-13.22Zm-5.84-16.18c1 .15 4.21 1.46 6.38 11.69h.39a2 2 0 0 1 .74.13c2-9.19 4.89-11.24 6.23-11.7a15.6 15.6 0 0 0-13.74-.09ZM67 152.5a15.57 15.57 0 0 0 10.12 8.81c-.68-1.34-1.25-4.86 3.23-12.84a2.19 2.19 0 0 1-.86-.64C71.38 153.8 68 153.06 67 152.5Zm-1.29-6.19a16.39 16.39 0 0 0 .17 2.33c.82-1.15 3.63-3.31 13.06-2.52a2.07 2.07 0 0 1 .34-1c-8.47-4.69-9.46-8-9.46-9.31a15.53 15.53 0 0 0-4.16 10.5ZM67 152.5a15.57 15.57 0 0 0 10.12 8.81c-.68-1.34-1.25-4.86 3.23-12.84a2.19 2.19 0 0 1-.86-.64C71.38 153.8 68 153.06 67 152.5Zm7.51-20.21c1 .15 4.21 1.46 6.38 11.69h.39a2 2 0 0 1 .74.13c2-9.19 4.89-11.24 6.23-11.7a15.6 15.6 0 0 0-13.74-.09Zm5.84 16.18Zm3.41 13.22a15.61 15.61 0 0 0 11-7.69c-1.31.4-4.86.45-11.85-6.06a2.35 2.35 0 0 1-1 .56c3.77 8.84 2.6 12.11 1.8 13.19Zm-.11-15.38a2.28 2.28 0 0 1 0 .26c9.42 0 12 2.43 12.73 3.65a15.51 15.51 0 0 0-2.79-13.46c.06 1-.62 4.44-10.09 8.69a2.06 2.06 0 0 1 .1.86Zm-17.94 0a16.39 16.39 0 0 0 .17 2.33c.82-1.15 3.63-3.31 13.06-2.52a2.07 2.07 0 0 1 .34-1c-8.47-4.69-9.46-8-9.46-9.31a15.53 15.53 0 0 0-4.16 10.5Zm17.94 0a2.28 2.28 0 0 1 0 .26c9.42 0 12 2.43 12.73 3.65a15.51 15.51 0 0 0-2.79-13.46c.06 1-.62 4.44-10.09 8.69a2.06 2.06 0 0 1 .1.86Zm.11 15.38a15.61 15.61 0 0 0 11-7.69c-1.31.4-4.86.45-11.85-6.06a2.35 2.35 0 0 1-1 .56c3.77 8.84 2.6 12.11 1.8 13.19Zm-3.46-13.22Zm-5.84-16.18c1 .15 4.21 1.46 6.38 11.69h.39a2 2 0 0 1 .74.13c2-9.19 4.89-11.24 6.23-11.7a15.6 15.6 0 0 0-13.74-.09ZM67 152.5a15.57 15.57 0 0 0 10.12 8.81c-.68-1.34-1.25-4.86 3.23-12.84a2.19 2.19 0 0 1-.86-.64C71.38 153.8 68 153.06 67 152.5Zm-1.29-6.19a16.39 16.39 0 0 0 .17 2.33c.82-1.15 3.63-3.31 13.06-2.52a2.07 2.07 0 0 1 .34-1c-8.47-4.69-9.46-8-9.46-9.31a15.53 15.53 0 0 0-4.16 10.5ZM67 152.5a15.57 15.57 0 0 0 10.12 8.81c-.68-1.34-1.25-4.86 3.23-12.84a2.19 2.19 0 0 1-.86-.64C71.38 153.8 68 153.06 67 152.5Zm7.51-20.21c1 .15 4.21 1.46 6.38 11.69h.39a2 2 0 0 1 .74.13c2-9.19 4.89-11.24 6.23-11.7a15.6 15.6 0 0 0-13.74-.09Zm5.84 16.18Zm3.41 13.22a15.61 15.61 0 0 0 11-7.69c-1.31.4-4.86.45-11.85-6.06a2.35 2.35 0 0 1-1 .56c3.77 8.84 2.6 12.11 1.8 13.19Zm-.11-15.38a2.28 2.28 0 0 1 0 .26c9.42 0 12 2.43 12.73 3.65a15.51 15.51 0 0 0-2.79-13.46c.06 1-.62 4.44-10.09 8.69a2.06 2.06 0 0 1 .1.86Zm-17.94 0a16.39 16.39 0 0 0 .17 2.33c.82-1.15 3.63-3.31 13.06-2.52a2.07 2.07 0 0 1 .34-1c-8.47-4.69-9.46-8-9.46-9.31a15.53 15.53 0 0 0-4.16 10.5Zm17.94 0a2.28 2.28 0 0 1 0 .26c9.42 0 12 2.43 12.73 3.65a15.51 15.51 0 0 0-2.79-13.46c.06 1-.62 4.44-10.09 8.69a2.06 2.06 0 0 1 .1.86Zm.11 15.38a15.61 15.61 0 0 0 11-7.69c-1.31.4-4.86.45-11.85-6.06a2.35 2.35 0 0 1-1 .56c3.77 8.84 2.6 12.11 1.8 13.19Zm-3.46-13.22Zm-5.84-16.18c1 .15 4.21 1.46 6.38 11.69h.39a2 2 0 0 1 .74.13c2-9.19 4.89-11.24 6.23-11.7a15.6 15.6 0 0 0-13.74-.09ZM67 152.5a15.57 15.57 0 0 0 10.12 8.81c-.68-1.34-1.25-4.86 3.23-12.84a2.19 2.19 0 0 1-.86-.64C71.38 153.8 68 153.06 67 152.5Zm-1.29-6.19a16.39 16.39 0 0 0 .17 2.33c.82-1.15 3.63-3.31 13.06-2.52a2.07 2.07 0 0 1 .34-1c-8.47-4.69-9.46-8-9.46-9.31a15.53 15.53 0 0 0-4.16 10.5ZM67 152.5a15.57 15.57 0 0 0 10.12 8.81c-.68-1.34-1.25-4.86 3.23-12.84a2.19 2.19 0 0 1-.86-.64C71.38 153.8 68 153.06 67 152.5Zm7.51-20.21c1 .15 4.21 1.46 6.38 11.69h.39a2 2 0 0 1 .74.13c2-9.19 4.89-11.24 6.23-11.7a15.6 15.6 0 0 0-13.74-.09Zm5.84 16.18Zm3.41 13.22a15.61 15.61 0 0 0 11-7.69c-1.31.4-4.86.45-11.85-6.06a2.35 2.35 0 0 1-1 .56c3.77 8.84 2.6 12.11 1.8 13.19Zm-.11-15.38a2.28 2.28 0 0 1 0 .26c9.42 0 12 2.43 12.73 3.65a15.51 15.51 0 0 0-2.79-13.46c.06 1-.62 4.44-10.09 8.69a2.06 2.06 0 0 1 .1.86Zm-17.94 0a16.39 16.39 0 0 0 .17 2.33c.82-1.15 3.63-3.31 13.06-2.52a2.07 2.07 0 0 1 .34-1c-8.47-4.69-9.46-8-9.46-9.31a15.53 15.53 0 0 0-4.16 10.5Zm17.94 0a2.28 2.28 0 0 1 0 .26c9.42 0 12 2.43 12.73 3.65a15.51 15.51 0 0 0-2.79-13.46c.06 1-.62 4.44-10.09 8.69a2.06 2.06 0 0 1 .1.86Zm.11 15.38a15.61 15.61 0 0 0 11-7.69c-1.31.4-4.86.45-11.85-6.06a2.35 2.35 0 0 1-1 .56c3.77 8.84 2.6 12.11 1.8 13.19Zm-3.46-13.22Zm-5.84-16.18c1 .15 4.21 1.46 6.38 11.69h.39a2 2 0 0 1 .74.13c2-9.19 4.89-11.24 6.23-11.7a15.6 15.6 0 0 0-13.74-.09ZM67 152.5a15.57 15.57 0 0 0 10.12 8.81c-.68-1.34-1.25-4.86 3.23-12.84a2.19 2.19 0 0 1-.86-.64C71.38 153.8 68 153.06 67 152.5Zm-1.29-6.19a16.39 16.39 0 0 0 .17 2.33c.82-1.15 3.63-3.31 13.06-2.52a2.07 2.07 0 0 1 .34-1c-8.47-4.69-9.46-8-9.46-9.31a15.53 15.53 0 0 0-4.16 10.5ZM67 152.5a15.57 15.57 0 0 0 10.12 8.81c-.68-1.34-1.25-4.86 3.23-12.84a2.19 2.19 0 0 1-.86-.64C71.38 153.8 68 153.06 67 152.5Zm13.84-8.5h.39a2 2 0 0 1 .74.13c2-9.19 4.89-11.24 6.23-11.7a15.6 15.6 0 0 0-13.74-.09c.99.1 4.21 1.41 6.38 11.66Zm-.52 4.46Zm1.64.1c3.72 8.8 2.55 12.07 1.75 13.15A15.61 15.61 0 0 0 94.76 154c-1.31.4-4.86.45-11.85-6.06a2.35 2.35 0 0 1-.91.6Zm1.62-2c9.42 0 12 2.43 12.73 3.65a15.51 15.51 0 0 0-2.79-13.46c.06 1-.62 4.44-10.09 8.69a2.06 2.06 0 0 1 .17.86 2.28 2.28 0 0 1-.02.27Zm-17.92-.26a16.39 16.39 0 0 0 .17 2.33c.82-1.15 3.63-3.31 13.06-2.52a2.07 2.07 0 0 1 .34-1c-8.47-4.69-9.46-8-9.46-9.31a15.53 15.53 0 0 0-4.11 10.51Zm-4.85 0a20.43 20.43 0 1 0 20.42-20.43 20.43 20.43 0 0 0-20.42 20.44Zm3.91 0a16.52 16.52 0 1 1 16.51 16.51 16.52 16.52 0 0 1-16.51-16.5Zm2.28 6.2a15.57 15.57 0 0 0 10.12 8.81c-.68-1.34-1.25-4.86 3.23-12.84a2.19 2.19 0 0 1-.86-.64C71.38 153.8 68 153.06 67 152.5Zm13.84-8.5h.39a2 2 0 0 1 .74.13c2-9.19 4.89-11.24 6.23-11.7a15.6 15.6 0 0 0-13.74-.09c.99.1 4.21 1.41 6.38 11.66Zm-.52 4.46Zm1.64.1c3.72 8.8 2.55 12.07 1.75 13.15A15.61 15.61 0 0 0 94.76 154c-1.31.4-4.86.45-11.85-6.06a2.35 2.35 0 0 1-.91.6Zm1.62-2c9.42 0 12 2.43 12.73 3.65a15.51 15.51 0 0 0-2.79-13.46c.06 1-.62 4.44-10.09 8.69a2.06 2.06 0 0 1 .17.86 2.28 2.28 0 0 1-.02.27Zm-17.92-.26a16.39 16.39 0 0 0 .17 2.33c.82-1.15 3.63-3.31 13.06-2.52a2.07 2.07 0 0 1 .34-1c-8.47-4.69-9.46-8-9.46-9.31a15.53 15.53 0 0 0-4.11 10.51Zm17.94 0a2.28 2.28 0 0 1 0 .26c9.42 0 12 2.43 12.73 3.65a15.51 15.51 0 0 0-2.79-13.46c.06 1-.62 4.44-10.09 8.69a2.06 2.06 0 0 1 .15.87Zm.11 15.38A15.61 15.61 0 0 0 94.76 154c-1.31.4-4.86.45-11.85-6.06a2.35 2.35 0 0 1-1 .56c3.77 8.84 2.6 12.11 1.8 13.19Zm-3.41-13.21Zm-5.84-16.18c1 .15 4.21 1.46 6.38 11.69h.39a2 2 0 0 1 .74.13c2-9.19 4.89-11.24 6.23-11.7a15.6 15.6 0 0 0-13.74-.09ZM67 152.5a15.57 15.57 0 0 0 10.12 8.81c-.68-1.34-1.25-4.86 3.23-12.84a2.19 2.19 0 0 1-.86-.64C71.38 153.8 68 153.06 67 152.5Zm-1.29-6.19a16.39 16.39 0 0 0 .17 2.33c.82-1.15 3.63-3.31 13.06-2.52a2.07 2.07 0 0 1 .34-1c-8.47-4.69-9.46-8-9.46-9.31a15.53 15.53 0 0 0-4.16 10.5ZM67 152.5a15.57 15.57 0 0 0 10.12 8.81c-.68-1.34-1.25-4.86 3.23-12.84a2.19 2.19 0 0 1-.86-.64C71.38 153.8 68 153.06 67 152.5Zm7.51-20.21c1 .15 4.21 1.46 6.38 11.69h.39a2 2 0 0 1 .74.13c2-9.19 4.89-11.24 6.23-11.7a15.6 15.6 0 0 0-13.74-.09Zm5.84 16.18Zm3.41 13.22a15.61 15.61 0 0 0 11-7.69c-1.31.4-4.86.45-11.85-6.06a2.35 2.35 0 0 1-1 .56c3.77 8.84 2.6 12.11 1.8 13.19Zm-.11-15.38a2.28 2.28 0 0 1 0 .26c9.42 0 12 2.43 12.73 3.65a15.51 15.51 0 0 0-2.79-13.46c.06 1-.62 4.44-10.09 8.69a2.06 2.06 0 0 1 .1.86Zm-17.94 0a16.39 16.39 0 0 0 .17 2.33c.82-1.15 3.63-3.31 13.06-2.52a2.07 2.07 0 0 1 .34-1c-8.47-4.69-9.46-8-9.46-9.31a15.53 15.53 0 0 0-4.16 10.5Zm17.94 0a2.28 2.28 0 0 1 0 .26c9.42 0 12 2.43 12.73 3.65a15.51 15.51 0 0 0-2.79-13.46c.06 1-.62 4.44-10.09 8.69a2.06 2.06 0 0 1 .1.86Zm.11 15.38a15.61 15.61 0 0 0 11-7.69c-1.31.4-4.86.45-11.85-6.06a2.35 2.35 0 0 1-1 .56c3.77 8.84 2.6 12.11 1.8 13.19Zm-3.46-13.22Zm-5.84-16.18c1 .15 4.21 1.46 6.38 11.69h.39a2 2 0 0 1 .74.13c2-9.19 4.89-11.24 6.23-11.7a15.6 15.6 0 0 0-13.74-.09ZM67 152.5a15.57 15.57 0 0 0 10.12 8.81c-.68-1.34-1.25-4.86 3.23-12.84a2.19 2.19 0 0 1-.86-.64C71.38 153.8 68 153.06 67 152.5Zm-1.29-6.19a16.39 16.39 0 0 0 .17 2.33c.82-1.15 3.63-3.31 13.06-2.52a2.07 2.07 0 0 1 .34-1c-8.47-4.69-9.46-8-9.46-9.31a15.53 15.53 0 0 0-4.16 10.5ZM67 152.5a15.57 15.57 0 0 0 10.12 8.81c-.68-1.34-1.25-4.86 3.23-12.84a2.19 2.19 0 0 1-.86-.64C71.38 153.8 68 153.06 67 152.5Zm7.51-20.21c1 .15 4.21 1.46 6.38 11.69h.39a2 2 0 0 1 .74.13c2-9.19 4.89-11.24 6.23-11.7a15.6 15.6 0 0 0-13.74-.09Zm5.84 16.18Zm3.41 13.22a15.61 15.61 0 0 0 11-7.69c-1.31.4-4.86.45-11.85-6.06a2.35 2.35 0 0 1-1 .56c3.77 8.84 2.6 12.11 1.8 13.19Zm-.11-15.38a2.28 2.28 0 0 1 0 .26c9.42 0 12 2.43 12.73 3.65a15.51 15.51 0 0 0-2.79-13.46c.06 1-.62 4.44-10.09 8.69a2.06 2.06 0 0 1 .1.86Zm-17.94 0a16.39 16.39 0 0 0 .17 2.33c.82-1.15 3.63-3.31 13.06-2.52a2.07 2.07 0 0 1 .34-1c-8.47-4.69-9.46-8-9.46-9.31a15.53 15.53 0 0 0-4.16 10.5Zm17.94 0a2.28 2.28 0 0 1 0 .26c9.42 0 12 2.43 12.73 3.65a15.51 15.51 0 0 0-2.79-13.46c.06 1-.62 4.44-10.09 8.69a2.06 2.06 0 0 1 .1.86Zm.11 15.38a15.61 15.61 0 0 0 11-7.69c-1.31.4-4.86.45-11.85-6.06a2.35 2.35 0 0 1-1 .56c3.77 8.84 2.6 12.11 1.8 13.19Zm-3.46-13.22Zm-5.84-16.18c1 .15 4.21 1.46 6.38 11.69h.39a2 2 0 0 1 .74.13c2-9.19 4.89-11.24 6.23-11.7a15.6 15.6 0 0 0-13.74-.09ZM67 152.5a15.57 15.57 0 0 0 10.12 8.81c-.68-1.34-1.25-4.86 3.23-12.84a2.19 2.19 0 0 1-.86-.64C71.38 153.8 68 153.06 67 152.5Zm-1.29-6.19a16.39 16.39 0 0 0 .17 2.33c.82-1.15 3.63-3.31 13.06-2.52a2.07 2.07 0 0 1 .34-1c-8.47-4.69-9.46-8-9.46-9.31a15.53 15.53 0 0 0-4.16 10.5ZM67 152.5a15.57 15.57 0 0 0 10.12 8.81c-.68-1.34-1.25-4.86 3.23-12.84a2.19 2.19 0 0 1-.86-.64C71.38 153.8 68 153.06 67 152.5Zm7.51-20.21c1 .15 4.21 1.46 6.38 11.69h.39a2 2 0 0 1 .74.13c2-9.19 4.89-11.24 6.23-11.7a15.6 15.6 0 0 0-13.74-.09Zm5.84 16.18Zm3.41 13.22a15.61 15.61 0 0 0 11-7.69c-1.31.4-4.86.45-11.85-6.06a2.35 2.35 0 0 1-1 .56c3.77 8.84 2.6 12.11 1.8 13.19Zm-.11-15.38a2.28 2.28 0 0 1 0 .26c9.42 0 12 2.43 12.73 3.65a15.51 15.51 0 0 0-2.79-13.46c.06 1-.62 4.44-10.09 8.69a2.06 2.06 0 0 1 .1.86Zm-17.94 0a16.39 16.39 0 0 0 .17 2.33c.82-1.15 3.63-3.31 13.06-2.52a2.07 2.07 0 0 1 .34-1c-8.47-4.69-9.46-8-9.46-9.31a15.53 15.53 0 0 0-4.16 10.5Zm17.94 0a2.28 2.28 0 0 1 0 .26c9.42 0 12 2.43 12.73 3.65a15.51 15.51 0 0 0-2.79-13.46c.06 1-.62 4.44-10.09 8.69a2.06 2.06 0 0 1 .1.86Zm.11 15.38a15.61 15.61 0 0 0 11-7.69c-1.31.4-4.86.45-11.85-6.06a2.35 2.35 0 0 1-1 .56c3.77 8.84 2.6 12.11 1.8 13.19Zm-3.46-13.22Zm-5.84-16.18c1 .15 4.21 1.46 6.38 11.69h.39a2 2 0 0 1 .74.13c2-9.19 4.89-11.24 6.23-11.7a15.6 15.6 0 0 0-13.74-.09ZM67 152.5a15.57 15.57 0 0 0 10.12 8.81c-.68-1.34-1.25-4.86 3.23-12.84a2.19 2.19 0 0 1-.86-.64C71.38 153.8 68 153.06 67 152.5Zm-1.29-6.19a16.39 16.39 0 0 0 .17 2.33c.82-1.15 3.63-3.31 13.06-2.52a2.07 2.07 0 0 1 .34-1c-8.47-4.69-9.46-8-9.46-9.31a15.53 15.53 0 0 0-4.16 10.5ZM67 152.5a15.57 15.57 0 0 0 10.12 8.81c-.68-1.34-1.25-4.86 3.23-12.84a2.19 2.19 0 0 1-.86-.64C71.38 153.8 68 153.06 67 152.5Zm7.51-20.21c1 .15 4.21 1.46 6.38 11.69h.39a2 2 0 0 1 .74.13c2-9.19 4.89-11.24 6.23-11.7a15.6 15.6 0 0 0-13.74-.09Zm5.84 16.18Zm3.41 13.22a15.61 15.61 0 0 0 11-7.69c-1.31.4-4.86.45-11.85-6.06a2.35 2.35 0 0 1-1 .56c3.77 8.84 2.6 12.11 1.8 13.19Zm-.11-15.38a2.28 2.28 0 0 1 0 .26c9.42 0 12 2.43 12.73 3.65a15.51 15.51 0 0 0-2.79-13.46c.06 1-.62 4.44-10.09 8.69a2.06 2.06 0 0 1 .1.86Zm-17.94 0a16.39 16.39 0 0 0 .17 2.33c.82-1.15 3.63-3.31 13.06-2.52a2.07 2.07 0 0 1 .34-1c-8.47-4.69-9.46-8-9.46-9.31a15.53 15.53 0 0 0-4.16 10.5Zm17.94 0a2.28 2.28 0 0 1 0 .26c9.42 0 12 2.43 12.73 3.65a15.51 15.51 0 0 0-2.79-13.46c.06 1-.62 4.44-10.09 8.69a2.06 2.06 0 0 1 .1.86Zm.11 15.38a15.61 15.61 0 0 0 11-7.69c-1.31.4-4.86.45-11.85-6.06a2.35 2.35 0 0 1-1 .56c3.77 8.84 2.6 12.11 1.8 13.19Zm-3.46-13.22Zm-5.84-16.18c1 .15 4.21 1.46 6.38 11.69h.39a2 2 0 0 1 .74.13c2-9.19 4.89-11.24 6.23-11.7a15.6 15.6 0 0 0-13.74-.09ZM67 152.5a15.57 15.57 0 0 0 10.12 8.81c-.68-1.34-1.25-4.86 3.23-12.84a2.19 2.19 0 0 1-.86-.64C71.38 153.8 68 153.06 67 152.5Zm-1.29-6.19a16.39 16.39 0 0 0 .17 2.33c.82-1.15 3.63-3.31 13.06-2.52a2.07 2.07 0 0 1 .34-1c-8.47-4.69-9.46-8-9.46-9.31a15.53 15.53 0 0 0-4.16 10.5ZM67 152.5a15.57 15.57 0 0 0 10.12 8.81c-.68-1.34-1.25-4.86 3.23-12.84a2.19 2.19 0 0 1-.86-.64C71.38 153.8 68 153.06 67 152.5Zm7.51-20.21c1 .15 4.21 1.46 6.38 11.69h.39a2 2 0 0 1 .74.13c2-9.19 4.89-11.24 6.23-11.7a15.6 15.6 0 0 0-13.74-.09Zm5.84 16.18Zm3.41 13.22a15.61 15.61 0 0 0 11-7.69c-1.31.4-4.86.45-11.85-6.06a2.35 2.35 0 0 1-1 .56c3.77 8.84 2.6 12.11 1.8 13.19Zm-.11-15.38a2.28 2.28 0 0 1 0 .26c9.42 0 12 2.43 12.73 3.65a15.51 15.51 0 0 0-2.79-13.46c.06 1-.62 4.44-10.09 8.69a2.06 2.06 0 0 1 .1.86Zm-17.94 0a16.39 16.39 0 0 0 .17 2.33c.82-1.15 3.63-3.31 13.06-2.52a2.07 2.07 0 0 1 .34-1c-8.47-4.69-9.46-8-9.46-9.31a15.53 15.53 0 0 0-4.16 10.5Zm17.94 0a2.28 2.28 0 0 1 0 .26c9.42 0 12 2.43 12.73 3.65a15.51 15.51 0 0 0-2.79-13.46c.06 1-.62 4.44-10.09 8.69a2.06 2.06 0 0 1 .1.86Zm.11 15.38a15.61 15.61 0 0 0 11-7.69c-1.31.4-4.86.45-11.85-6.06a2.35 2.35 0 0 1-1 .56c3.77 8.84 2.6 12.11 1.8 13.19Zm-3.46-13.22Zm-5.84-16.18c1 .15 4.21 1.46 6.38 11.69h.39a2 2 0 0 1 .74.13c2-9.19 4.89-11.24 6.23-11.7a15.6 15.6 0 0 0-13.74-.09ZM67 152.5a15.57 15.57 0 0 0 10.12 8.81c-.68-1.34-1.25-4.86 3.23-12.84a2.19 2.19 0 0 1-.86-.64C71.38 153.8 68 153.06 67 152.5Zm-1.29-6.19a16.39 16.39 0 0 0 .17 2.33c.82-1.15 3.63-3.31 13.06-2.52a2.07 2.07 0 0 1 .34-1c-8.47-4.69-9.46-8-9.46-9.31a15.53 15.53 0 0 0-4.16 10.5ZM67 152.5a15.57 15.57 0 0 0 10.12 8.81c-.68-1.34-1.25-4.86 3.23-12.84a2.19 2.19 0 0 1-.86-.64C71.38 153.8 68 153.06 67 152.5Zm7.51-20.21c1 .15 4.21 1.46 6.38 11.69h.39a2 2 0 0 1 .74.13c2-9.19 4.89-11.24 6.23-11.7a15.6 15.6 0 0 0-13.74-.09Zm5.84 16.18Zm3.41 13.22a15.61 15.61 0 0 0 11-7.69c-1.31.4-4.86.45-11.85-6.06a2.35 2.35 0 0 1-1 .56c3.77 8.84 2.6 12.11 1.8 13.19Zm-.11-15.38a2.28 2.28 0 0 1 0 .26c9.42 0 12 2.43 12.73 3.65a15.51 15.51 0 0 0-2.79-13.46c.06 1-.62 4.44-10.09 8.69a2.06 2.06 0 0 1 .1.86Zm-3.3 2.16Zm0 0Zm0 0Zm0 0Zm0 0Zm0 0Zm0 0Zm0 0Zm0 0Zm0 0Z" />
    <path d="M83.6 146.31a2.28 2.28 0 0 1 0 .26c9.42 0 12 2.43 12.73 3.65a15.51 15.51 0 0 0-2.79-13.46c.06 1-.62 4.44-10.09 8.69a2.06 2.06 0 0 1 .15.86ZM83.71 161.69A15.61 15.61 0 0 0 94.76 154c-1.31.4-4.86.45-11.85-6.06a2.35 2.35 0 0 1-1 .56c3.77 8.84 2.6 12.11 1.8 13.19ZM80.3 148.47ZM74.46 132.29c1 .15 4.21 1.46 6.38 11.69h.39a2 2 0 0 1 .74.13c2-9.19 4.89-11.24 6.23-11.7a15.6 15.6 0 0 0-13.74-.09ZM67 152.5a15.57 15.57 0 0 0 10.12 8.81c-.68-1.34-1.25-4.86 3.23-12.84a2.19 2.19 0 0 1-.86-.64C71.38 153.8 68 153.06 67 152.5ZM65.66 146.31a16.39 16.39 0 0 0 .17 2.33c.82-1.15 3.63-3.31 13.06-2.52a2.07 2.07 0 0 1 .34-1c-8.47-4.69-9.46-8-9.46-9.31a15.53 15.53 0 0 0-4.11 10.5Z" />
    <path d="M80.3 148.47Zm0 0Zm0 0Zm0 0Zm0 0Zm0 0Zm0 0Zm0 0Zm0 0Zm0 0Zm-14.64-2.16a16.39 16.39 0 0 0 .17 2.33c.82-1.15 3.63-3.31 13.06-2.52a2.07 2.07 0 0 1 .34-1c-8.47-4.69-9.46-8-9.46-9.31a15.53 15.53 0 0 0-4.11 10.5ZM67 152.5a15.57 15.57 0 0 0 10.12 8.81c-.68-1.34-1.25-4.86 3.23-12.84a2.19 2.19 0 0 1-.86-.64C71.38 153.8 68 153.06 67 152.5Zm7.51-20.21c1 .15 4.21 1.46 6.38 11.69h.39a2 2 0 0 1 .74.13c2-9.19 4.89-11.24 6.23-11.7a15.6 15.6 0 0 0-13.74-.09Zm5.84 16.18Zm3.41 13.22a15.61 15.61 0 0 0 11-7.69c-1.31.4-4.86.45-11.85-6.06a2.35 2.35 0 0 1-1 .56c3.77 8.84 2.6 12.11 1.8 13.19Zm-.11-15.38a2.28 2.28 0 0 1 0 .26c9.42 0 12 2.43 12.73 3.65a15.51 15.51 0 0 0-2.79-13.46c.06 1-.62 4.44-10.09 8.69a2.06 2.06 0 0 1 .1.86Zm-3.3 2.16Zm0 0Zm0 0Zm0 0Zm0 0Zm0 0Zm0 0Zm0 0Zm0 0Zm0 0Z" />
    <path d="M78.88 146.31a2.43 2.43 0 0 0 .52 1.49 2.19 2.19 0 0 0 .86.64 2.37 2.37 0 0 0 .92.19 2.18 2.18 0 0 0 .72-.12 2.35 2.35 0 0 0 1-.56 2.35 2.35 0 0 0 .64-1.32v-.05a2.28 2.28 0 0 0 0-.26 2.06 2.06 0 0 0-.17-.86.19.19 0 0 0 0-.08 2.32 2.32 0 0 0-1.37-1.29 2 2 0 0 0-.74-.13h-.46a2.32 2.32 0 0 0-1.53 1.05 2.07 2.07 0 0 0-.34 1ZM80.3 148.47ZM80.3 148.47Z" />
  </svg>